<svg width="50" height="50" viewBox="0 0 50 50" fill="none" xmlns="http://www.w3.org/2000/svg">
<rect width="50" height="50" rx="8" fill="#001C98"/>
<path fill-rule="evenodd" clip-rule="evenodd" d="M20 25.75C19.0335 25.75 18.25 26.5335 18.25 27.5C18.25 28.4665 19.0335 29.25 20 29.25C20.9665 29.25 21.75 28.4665 21.75 27.5C21.75 26.5335 20.9665 25.75 20 25.75ZM16.75 27.5C16.75 25.7051 18.2051 24.25 20 24.25C21.7949 24.25 23.25 25.7051 23.25 27.5C23.25 29.2949 21.7949 30.75 20 30.75C18.2051 30.75 16.75 29.2949 16.75 27.5Z" fill="#C5CFFF"/>
<path fill-rule="evenodd" clip-rule="evenodd" d="M30 25.75C29.0335 25.75 28.25 26.5335 28.25 27.5C28.25 28.4665 29.0335 29.25 30 29.25C30.9665 29.25 31.75 28.4665 31.75 27.5C31.75 26.5335 30.9665 25.75 30 25.75ZM26.75 27.5C26.75 25.7051 28.2051 24.25 30 24.25C31.7949 24.25 33.25 25.7051 33.25 27.5C33.25 29.2949 31.7949 30.75 30 30.75C28.2051 30.75 26.75 29.2949 26.75 27.5Z" fill="#C5CFFF"/>
<path fill-rule="evenodd" clip-rule="evenodd" d="M25 15.75C24.0335 15.75 23.25 16.5335 23.25 17.5C23.25 18.4665 24.0335 19.25 25 19.25C25.9665 19.25 26.75 18.4665 26.75 17.5C26.75 16.5335 25.9665 15.75 25 15.75ZM21.75 17.5C21.75 15.7051 23.2051 14.25 25 14.25C26.7949 14.25 28.25 15.7051 28.25 17.5C28.25 19.2949 26.7949 20.75 25 20.75C23.2051 20.75 21.75 19.2949 21.75 17.5Z" fill="#C5CFFF"/>
<path fill-rule="evenodd" clip-rule="evenodd" d="M14.25 35C14.25 31.8244 16.8244 29.25 20 29.25C23.1756 29.25 25.75 31.8244 25.75 35C25.75 35.4142 25.4142 35.75 25 35.75C24.5858 35.75 24.25 35.4142 24.25 35C24.25 32.6528 22.3472 30.75 20 30.75C17.6528 30.75 15.75 32.6528 15.75 35C15.75 35.4142 15.4142 35.75 15 35.75C14.5858 35.75 14.25 35.4142 14.25 35Z" fill="#C5CFFF"/>
<path fill-rule="evenodd" clip-rule="evenodd" d="M24.25 35C24.25 31.8244 26.8244 29.25 30 29.25C33.1756 29.25 35.75 31.8244 35.75 35C35.75 35.4142 35.4142 35.75 35 35.75C34.5858 35.75 34.25 35.4142 34.25 35C34.25 32.6528 32.3472 30.75 30 30.75C27.6528 30.75 25.75 32.6528 25.75 35C25.75 35.4142 25.4142 35.75 25 35.75C24.5858 35.75 24.25 35.4142 24.25 35Z" fill="#C5CFFF"/>
<path fill-rule="evenodd" clip-rule="evenodd" d="M19.25 25C19.25 21.8244 21.8244 19.25 25 19.25C28.1756 19.25 30.75 21.8244 30.75 25C30.75 25.4142 30.4142 25.75 30 25.75C29.5858 25.75 29.25 25.4142 29.25 25C29.25 22.6528 27.3472 20.75 25 20.75C22.6528 20.75 20.75 22.6528 20.75 25C20.75 25.4142 20.4142 25.75 20 25.75C19.5858 25.75 19.25 25.4142 19.25 25Z" fill="#C5CFFF"/>
</svg>
