<svg width="50" height="50" viewBox="0 0 50 50" fill="none" xmlns="http://www.w3.org/2000/svg">
<rect width="50" height="50" rx="8" fill="#EEEEEE"/>
<path fill-rule="evenodd" clip-rule="evenodd" d="M15.9092 15.6136C16.3234 15.6136 16.6592 15.9494 16.6592 16.3636V19.25H19.5456C19.9598 19.25 20.2956 19.5858 20.2956 20C20.2956 20.4142 19.9598 20.75 19.5456 20.75H15.9092C15.495 20.75 15.1592 20.4142 15.1592 20V16.3636C15.1592 15.9494 15.495 15.6136 15.9092 15.6136Z" fill="#616161"/>
<path fill-rule="evenodd" clip-rule="evenodd" d="M15.6892 19.6234C17.5469 16.4128 21.0205 14.25 25 14.25C30.9371 14.25 35.75 19.0629 35.75 25C35.75 30.9371 30.9371 35.75 25 35.75C19.0629 35.75 14.25 30.9371 14.25 25C14.25 24.5858 14.5858 24.25 15 24.25C15.4142 24.25 15.75 24.5858 15.75 25C15.75 30.1086 19.8914 34.25 25 34.25C30.1086 34.25 34.25 30.1086 34.25 25C34.25 19.8914 30.1086 15.75 25 15.75C21.5775 15.75 18.5882 17.6084 16.9876 20.3747C16.7801 20.7332 16.3213 20.8557 15.9628 20.6482C15.6042 20.4408 15.4818 19.982 15.6892 19.6234Z" fill="#616161"/>
<path fill-rule="evenodd" clip-rule="evenodd" d="M25.0026 18.25C25.4168 18.25 25.7526 18.5859 25.7526 19.0001L25.752 24.6938L29.772 28.7138C30.0649 29.0067 30.0649 29.4815 29.772 29.7744C29.4791 30.0673 29.0042 30.0673 28.7113 29.7744L24.4716 25.5347C24.331 25.3941 24.2519 25.2033 24.252 25.0043L24.2526 18.9999C24.2526 18.5857 24.5884 18.25 25.0026 18.25Z" fill="#616161"/>
</svg>
