<svg width="32" height="32" viewBox="0 0 32 32" fill="none" xmlns="http://www.w3.org/2000/svg">
<g id="outline / menu / default">
<path id="icon" fill-rule="evenodd" clip-rule="evenodd" d="M4.33334 9.33334C4.33334 8.78106 4.78106 8.33334 5.33334 8.33334H26.6667C27.219 8.33334 27.6667 8.78106 27.6667 9.33334C27.6667 9.88563 27.219 10.3333 26.6667 10.3333H5.33334C4.78106 10.3333 4.33334 9.88563 4.33334 9.33334ZM4.33334 16C4.33334 15.4477 4.78106 15 5.33334 15H26.6667C27.219 15 27.6667 15.4477 27.6667 16C27.6667 16.5523 27.219 17 26.6667 17H5.33334C4.78106 17 4.33334 16.5523 4.33334 16ZM4.33334 22.6667C4.33334 22.1144 4.78106 21.6667 5.33334 21.6667H26.6667C27.219 21.6667 27.6667 22.1144 27.6667 22.6667C27.6667 23.219 27.219 23.6667 26.6667 23.6667H5.33334C4.78106 23.6667 4.33334 23.219 4.33334 22.6667Z" fill="#757575"/>
</g>
</svg>
