<svg xmlns="http://www.w3.org/2000/svg" width="173" height="39" viewBox="0 0 173 39" fill="none">
  <g clip-path="url(#clip0_5239_23785)">
    <path d="M81.9 19.2C82.7 18.3 83.3 17.2 83.7 15.9C84.1 14.6 84.3 13.3 84.3 11.9C84.3 8.7 83.4 6 81.6 3.8C79.6 1.3 77 0 73.8 0L56.3 0.2V8.1H72.5C73.4 8.1 74.2 8.5 74.8 9.2C75.3 9.8 75.6 10.6 75.6 11.6C75.6 12.5 75.3 13.3 74.8 13.9C74.3 14.6 73.5 14.9 72.6 14.9H65.9V23.4H72.6C73.6 23.4 74.3 23.7 74.9 24.4C75.4 25 75.6 25.8 75.6 26.7C75.6 27.7 75.3 28.5 74.8 29.1C74.2 29.8 73.5 30.2 72.5 30.2H56.3V38.2H73.8C77.1 38.2 79.7 37 81.6 34.5C83.3 32.3 84.2 29.6 84.2 26.5C84.2 25.1 84 23.7 83.6 22.5C83.3 21.3 82.7 20.2 81.9 19.2Z" fill="white"/>
    <path d="M91.3 0.700012H111.9V2.90001H93.6V18.3H108.6V20.5H93.6V36.3H111.9V38.5H91.3V0.700012Z" fill="white"/>
    <path d="M118 0.700012H129C132.5 0.700012 134.3 1.10001 135.8 1.80001C138.9 3.40001 141 6.50001 141 10.8C141 16.2 137.9 20.2 133.5 21.2V21.3C133.5 21.3 133.9 21.7 134.4 22.6L142.9 38.3H140L131.1 21.6H120.3V38.3H118V0.700012ZM130.5 19.6C135.5 19.6 138.6 16 138.6 10.9C138.6 7.60001 136.9 4.90001 134.2 3.60001C133.1 3.10001 131.9 2.80001 128.9 2.80001H120.3V19.5H130.5V19.6Z" fill="white"/>
    <path d="M152.4 0.700012H163C168.6 0.700012 172.8 4.80001 172.8 11.7C172.8 18.5 168.6 22.8 163 22.8H154.4V38.4H152.4V0.700012ZM162.8 20.6C167.5 20.6 170.6 17.3 170.6 11.7C170.6 6.00001 167.5 2.90001 162.8 2.90001H154.3V20.7H162.8V20.6Z" fill="white"/>
    <path d="M44.1 2.50001L42.7 28C42.7 28.7 42.6 29.2 42.4 29.4C42.2 29.6 41.9 29.8 41.3 30C41 30 40.7 30 40.5 29.8C40.2 29.5 40 28.9 39.7 28L35.5 16C34.2 12.3 33.6 11.5 31.9 10.1C30.3 8.90001 28.5 8.30001 26.3 8.30001C23.8 8.30001 21.5 9.10001 19.6 10.6C17.5 12.3 16.5 14.3 16.3 16.9L14.3 27.9C14.3 28.5 14.1 29 13.9 29.3C13.7 29.7 13.3 29.8 12.8 29.8C12.5 29.8 12.3 29.6 12 29.3C11.6 28.9 11.5 28.4 11.5 27.8L8 12.8L0 15L2.7 28C3.4 31.5 4.6 34.2 6.3 36C7.9 37.7 9.8 38.5 12 38.5C14.7 38.5 16.9 37.9 18.7 36.6C20.8 35.1 21.9 32.9 22.1 30L24.1 19.2C24.1 18.6 24.3 18 24.6 17.7C24.9 17.3 25.3 17.1 25.7 17.1C26 17.1 26.3 17.2 26.6 17.5C26.9 17.7 27.1 18.1 27.3 18.6L31 29.9C31.9 32.8 33.1 34.9 34.5 36.2C36.1 37.7 38 38.4 40.4 38.4C43.1 38.4 45.3 37.8 47.1 36.5C49.2 35 50.3 32.8 50.5 29.9L52.2 0.200012L44.1 2.50001Z" fill="white"/>
  </g>
  <defs>
    <clipPath id="clip0_5239_23785">
      <rect width="172.7" height="38.4" fill="white"/>
    </clipPath>
  </defs>
</svg>
