<svg width="48" height="48" viewBox="0 0 48 48" fill="none" xmlns="http://www.w3.org/2000/svg">
<circle cx="24" cy="24" r="24" fill="#C5CFFF"/>
<path fill-rule="evenodd" clip-rule="evenodd" d="M24 14.75C22.2051 14.75 20.75 16.2051 20.75 18C20.75 19.7949 22.2051 21.25 24 21.25C25.7949 21.25 27.25 19.7949 27.25 18C27.25 16.2051 25.7949 14.75 24 14.75ZM19.25 18C19.25 15.3766 21.3766 13.25 24 13.25C26.6234 13.25 28.75 15.3766 28.75 18C28.75 20.6234 26.6234 22.75 24 22.75C21.3766 22.75 19.25 20.6234 19.25 18Z" fill="#001C98"/>
<path fill-rule="evenodd" clip-rule="evenodd" d="M14.25 34C14.25 28.6152 18.6152 24.25 24 24.25C29.3848 24.25 33.75 28.6152 33.75 34C33.75 34.4142 33.4142 34.75 33 34.75C32.5858 34.75 32.25 34.4142 32.25 34C32.25 29.4437 28.5563 25.75 24 25.75C19.4437 25.75 15.75 29.4437 15.75 34C15.75 34.4142 15.4142 34.75 15 34.75C14.5858 34.75 14.25 34.4142 14.25 34Z" fill="#001C98"/>
</svg>
