<svg width="50" height="50" viewBox="0 0 50 50" fill="none" xmlns="http://www.w3.org/2000/svg">
<path d="M0 8C0 3.58172 3.58172 0 8 0H42C46.4183 0 50 3.58172 50 8V42C50 46.4183 46.4183 50 42 50H8C3.58172 50 0 46.4183 0 42V8Z" fill="#C5CFFF"/>
<path d="M20.5 30V35H29.5V30M28.9675 15H20.9928C17.521 15 17.2563 17.3027 17.6245 18.5199L20.4946 30H29.4656C29.4656 30 31.7873 21.0913 32.4094 18.5199C32.704 17.3027 32.4548 14.9913 28.9675 15ZM23.2438 22.5454C24.0637 21.5729 24.6956 20.2294 25.0372 19.5C25.635 20.2294 26.9331 22.0592 27.343 23.0317C27.8555 24.2473 26.5744 25.7061 25.0372 25.7061C23.5 25.7061 22.219 23.7611 23.2438 22.5454Z" stroke="#001C98" stroke-width="1.5" stroke-linecap="round" stroke-linejoin="round"/>
</svg>
