<svg width="50" height="50" viewBox="0 0 50 50" fill="none" xmlns="http://www.w3.org/2000/svg">
<rect width="50" height="50" rx="8" fill="#FFE1E1"/>
<path d="M21.25 30C21.25 29.5858 20.9142 29.25 20.5 29.25C20.0858 29.25 19.75 29.5858 19.75 30H21.25ZM20.5 35H19.75C19.75 35.4142 20.0858 35.75 20.5 35.75V35ZM29.5 35V35.75C29.9142 35.75 30.25 35.4142 30.25 35H29.5ZM30.25 30C30.25 29.5858 29.9142 29.25 29.5 29.25C29.0858 29.25 28.75 29.5858 28.75 30H30.25ZM28.9675 15L28.9675 15.75L28.9694 15.75L28.9675 15ZM17.6245 18.5199L18.3521 18.338L18.3476 18.3203L18.3423 18.3028L17.6245 18.5199ZM20.4946 30L19.7669 30.1819L19.909 30.75H20.4946V30ZM29.4656 30V30.75H30.0452L30.1914 30.1891L29.4656 30ZM32.4094 18.5199L31.6804 18.3435L31.6804 18.3436L32.4094 18.5199ZM23.2438 22.5454L23.8172 23.0289L23.8172 23.0288L23.2438 22.5454ZM25.0372 19.5L25.6173 19.0246C25.454 18.8253 25.1998 18.7238 24.9442 18.7558C24.6886 18.7877 24.4673 18.9486 24.358 19.1819L25.0372 19.5ZM27.343 23.0317L26.6519 23.323L26.6519 23.323L27.343 23.0317ZM19.75 30V35H21.25V30H19.75ZM20.5 35.75H29.5V34.25H20.5V35.75ZM30.25 35V30H28.75V35H30.25ZM28.9675 14.25H20.9928V15.75H28.9675V14.25ZM20.9928 14.25C19.0868 14.25 17.8646 14.8932 17.2323 15.9065C16.6304 16.8712 16.6808 17.9907 16.9066 18.7371L18.3423 18.3028C18.1999 17.8319 18.1986 17.1915 18.5049 16.7005C18.7809 16.2582 19.427 15.75 20.9928 15.75V14.25ZM16.8969 18.7019L19.7669 30.1819L21.2222 29.8181L18.3521 18.338L16.8969 18.7019ZM20.4946 30.75H29.4656V29.25H20.4946V30.75ZM29.4656 30C30.1914 30.1891 30.1914 30.1891 30.1914 30.189C30.1914 30.189 30.1914 30.1889 30.1915 30.1887C30.1915 30.1884 30.1916 30.188 30.1918 30.1875C30.1921 30.1864 30.1925 30.1848 30.1931 30.1826C30.1942 30.1783 30.1958 30.1719 30.1981 30.1634C30.2025 30.1465 30.209 30.1213 30.2176 30.0883C30.2348 30.0224 30.26 29.9254 30.2924 29.8011C30.3571 29.5523 30.4503 29.1942 30.564 28.7564C30.7914 27.8808 31.1012 26.6865 31.4304 25.4118C32.088 22.8653 32.8256 19.9889 33.1384 18.6963L31.6804 18.3436C31.371 19.6224 30.6367 22.4861 29.978 25.0367C29.649 26.3106 29.3395 27.5041 29.1122 28.3793C28.9985 28.8168 28.9054 29.1748 28.8407 29.4233C28.8084 29.5476 28.7832 29.6445 28.766 29.7103C28.7575 29.7432 28.7509 29.7684 28.7465 29.7853C28.7443 29.7937 28.7426 29.8001 28.7415 29.8044C28.741 29.8066 28.7405 29.8082 28.7403 29.8092C28.7401 29.8098 28.74 29.8102 28.7399 29.8105C28.7399 29.8106 28.7399 29.8107 28.7399 29.8108C28.7398 29.8108 28.7398 29.8109 29.4656 30ZM33.1384 18.6963C33.3141 17.9699 33.3476 16.8584 32.7404 15.8991C32.1009 14.8889 30.8815 14.2452 28.9656 14.25L28.9694 15.75C30.5408 15.7461 31.1897 16.2538 31.4729 16.7014C31.7885 17.1999 31.7992 17.8527 31.6804 18.3435L33.1384 18.6963ZM23.8172 23.0288C24.711 21.9686 25.3812 20.5339 25.7164 19.8181L24.358 19.1819C24.01 19.9249 23.4163 21.1772 22.6704 22.062L23.8172 23.0288ZM24.4571 19.9754C24.7372 20.3171 25.197 20.9369 25.6381 21.5931C26.087 22.2609 26.4775 22.9094 26.6519 23.323L28.0341 22.7404C27.7986 22.1815 27.3351 21.4288 26.883 20.7563C26.4231 20.0721 25.935 19.4122 25.6173 19.0246L24.4571 19.9754ZM26.6519 23.323C26.766 23.5938 26.7121 23.9646 26.3923 24.3332C26.0754 24.6983 25.5722 24.9561 25.0372 24.9561V26.4561C26.0394 26.4561 26.9453 25.9845 27.5252 25.3163C28.102 24.6516 28.4324 23.6853 28.0341 22.7404L26.6519 23.323ZM25.0372 24.9561C24.5832 24.9561 24.0998 24.6556 23.8222 24.1947C23.5505 23.7436 23.5709 23.321 23.8172 23.0289L22.6704 22.062C21.8918 22.9856 22.0403 24.1433 22.5372 24.9685C23.0283 25.7841 23.954 26.4561 25.0372 26.4561V24.9561Z" fill="#FF3333"/>
</svg>
